<?xml version="1.0" encoding="UTF-8"?>
<svg width="128px" height="128px" viewBox="0 0 128 128" version="1.1" xmlns="http://www.w3.org/2000/svg" xmlns:xlink="http://www.w3.org/1999/xlink">
    <!-- Generator: Sketch 39.1 (31720) - http://www.bohemiancoding.com/sketch -->
    <title>Artboard</title>
    <desc>Created with Sketch.</desc>
    <defs>
        <path d="M42.7555556,95.8222222 C19.0222222,95.3777778 0.355555556,75.5555556 0.355555556,51.9111111 L0.355555556,33.2444444 C0.355555556,30.6666667 2.48888889,28.5333333 5.06666667,28.5333333 L13.3333333,28.5333333 C15.9111111,28.5333333 18.0444444,30.6666667 18.0444444,33.2444444 L18.0444444,52.0888889 C18.0444444,65.9555556 28.8888889,77.6888889 42.7555556,78.0444444 C57.1555556,78.4888889 68.9777778,66.9333333 68.9777778,52.6222222 L68.9777778,33.2444444 C68.9777778,30.6666667 71.1111111,28.5333333 73.6888889,28.5333333 L81.9555556,28.5333333 C84.5333333,28.5333333 86.6666667,30.6666667 86.6666667,33.2444444 L86.6666667,52.6222222 C86.7555556,76.7111111 66.9333333,96.2666667 42.7555556,95.8222222 L42.7555556,95.8222222 Z" id="path-1"></path>
        <filter x="-50%" y="-50%" width="200%" height="200%" filterUnits="objectBoundingBox" id="filter-2">
            <feGaussianBlur stdDeviation="2.5" in="SourceAlpha" result="shadowBlurInner1"></feGaussianBlur>
            <feOffset dx="0" dy="0" in="shadowBlurInner1" result="shadowOffsetInner1"></feOffset>
            <feComposite in="shadowOffsetInner1" in2="SourceAlpha" operator="arithmetic" k2="-1" k3="1" result="shadowInnerInner1"></feComposite>
            <feColorMatrix values="0 0 0 0 0   0 0 0 0 0   0 0 0 0 0  0 0 0 1 0" type="matrix" in="shadowInnerInner1"></feColorMatrix>
        </filter>
        <path d="M16.5333333,0.177777778 L5.33333333,0.177777778 C2.57777778,0.177777778 0.266666667,2.4 0.266666667,5.24444444 L0.266666667,16.3555556 C0.266666667,19.1111111 2.48888889,21.4222222 5.33333333,21.4222222 L16.4444444,21.4222222 C19.2,21.4222222 21.5111111,19.2 21.5111111,16.3555556 L21.5111111,5.24444444 C21.6,2.4 19.2888889,0.177777778 16.5333333,0.177777778 L16.5333333,0.177777778 Z" id="path-3"></path>
        <filter x="-50%" y="-50%" width="200%" height="200%" filterUnits="objectBoundingBox" id="filter-4">
            <feGaussianBlur stdDeviation="2.5" in="SourceAlpha" result="shadowBlurInner1"></feGaussianBlur>
            <feOffset dx="0" dy="0" in="shadowBlurInner1" result="shadowOffsetInner1"></feOffset>
            <feComposite in="shadowOffsetInner1" in2="SourceAlpha" operator="arithmetic" k2="-1" k3="1" result="shadowInnerInner1"></feComposite>
            <feColorMatrix values="0 0 0 0 0   0 0 0 0 0   0 0 0 0 0  0 0 0 1 0" type="matrix" in="shadowInnerInner1"></feColorMatrix>
        </filter>
        <path d="M81.7777778,0.177777778 L70.5777778,0.177777778 C67.8222222,0.177777778 65.5111111,2.4 65.5111111,5.24444444 L65.5111111,16.3555556 C65.5111111,19.1111111 67.7333333,21.4222222 70.5777778,21.4222222 L81.7777778,21.4222222 C84.5333333,21.4222222 86.8444444,19.2 86.8444444,16.3555556 L86.8444444,5.24444444 C86.7555556,2.4 84.5333333,0.177777778 81.7777778,0.177777778 L81.7777778,0.177777778 Z" id="path-5"></path>
        <filter x="-50%" y="-50%" width="200%" height="200%" filterUnits="objectBoundingBox" id="filter-6">
            <feGaussianBlur stdDeviation="2.5" in="SourceAlpha" result="shadowBlurInner1"></feGaussianBlur>
            <feOffset dx="0" dy="0" in="shadowBlurInner1" result="shadowOffsetInner1"></feOffset>
            <feComposite in="shadowOffsetInner1" in2="SourceAlpha" operator="arithmetic" k2="-1" k3="1" result="shadowInnerInner1"></feComposite>
            <feColorMatrix values="0 0 0 0 0   0 0 0 0 0   0 0 0 0 0  0 0 0 1 0" type="matrix" in="shadowInnerInner1"></feColorMatrix>
        </filter>
    </defs>
    <g id="Page-1" stroke="none" stroke-width="1" fill="none" fill-rule="evenodd">
        <g id="Artboard">
            <g id="Group" transform="translate(20.000000, 16.000000)">
                <g id="Shape">
                    <use fill="#8E8E93" fill-rule="evenodd" xlink:href="#path-1"></use>
                    <use fill="black" fill-opacity="1" filter="url(#filter-2)" xlink:href="#path-1"></use>
                </g>
                <g id="Shape">
                    <use fill="#8E8E93" fill-rule="evenodd" xlink:href="#path-3"></use>
                    <use fill="black" fill-opacity="1" filter="url(#filter-4)" xlink:href="#path-3"></use>
                </g>
                <g id="Shape">
                    <use fill="#8E8E93" fill-rule="evenodd" xlink:href="#path-5"></use>
                    <use fill="black" fill-opacity="1" filter="url(#filter-6)" xlink:href="#path-5"></use>
                </g>
            </g>
        </g>
    </g>
</svg>